<svg width="32" height="52" viewBox="0 0 32 52" fill="none" xmlns="http://www.w3.org/2000/svg">
<path d="M5.46925 48.1983C4.97351 48.1983 4.53561 48.1033 4.15555 47.9133C3.78375 47.715 3.47805 47.4506 3.23844 47.1201L4.0564 46.3641C4.21339 46.5954 4.40755 46.7731 4.63889 46.897C4.8785 47.0209 5.14289 47.0829 5.43207 47.0829C5.72125 47.0829 5.97738 47.0209 6.20046 46.897C6.42354 46.7731 6.59705 46.5913 6.72098 46.3517C6.85318 46.1038 6.91928 45.8022 6.91928 45.447V39.4734H8.08426V45.385C8.08426 45.9551 7.96858 46.4508 7.73724 46.8722C7.51416 47.2936 7.20432 47.6199 6.80774 47.8513C6.41941 48.0826 5.97325 48.1983 5.46925 48.1983ZM10.7999 44.7282V43.7119H13.1422C13.4644 43.7119 13.7495 43.6458 13.9974 43.5136C14.2535 43.3814 14.4518 43.1955 14.5922 42.9559C14.741 42.7163 14.8153 42.4312 14.8153 42.1008C14.8153 41.7703 14.741 41.4852 14.5922 41.2456C14.4518 41.006 14.2535 40.8201 13.9974 40.6879C13.7495 40.5557 13.4644 40.4896 13.1422 40.4896H10.7999V39.4734H13.2166C13.7454 39.4734 14.2163 39.5808 14.6294 39.7956C15.0508 40.0104 15.3813 40.3161 15.6209 40.7127C15.8688 41.101 15.9927 41.5637 15.9927 42.1008C15.9927 42.6295 15.8688 43.0922 15.6209 43.4888C15.3813 43.8771 15.0508 44.1828 14.6294 44.4059C14.2163 44.6207 13.7454 44.7282 13.2166 44.7282H10.7999ZM10.0191 48.0744V39.4734H11.1841V48.0744H10.0191ZM21.4265 48.1983C20.8234 48.1983 20.2574 48.0868 19.7286 47.8637C19.2081 47.6323 18.7495 47.3142 18.353 46.9094C17.9646 46.5045 17.6589 46.0336 17.4358 45.4965C17.2128 44.9595 17.1012 44.3811 17.1012 43.7615C17.1012 43.1418 17.2128 42.5676 17.4358 42.0388C17.6589 41.5017 17.9688 41.0308 18.3653 40.6259C18.7619 40.2211 19.2246 39.9071 19.7534 39.684C20.2905 39.461 20.8729 39.3494 21.5009 39.3494C22.1866 39.3494 22.8187 39.4816 23.3971 39.746C23.9754 40.0104 24.4588 40.3905 24.8471 40.8862L24.0415 41.6918C23.7689 41.2952 23.4095 40.9936 22.9633 40.7871C22.5171 40.5722 22.0297 40.4648 21.5009 40.4648C20.8729 40.4648 20.3152 40.6053 19.8278 40.8862C19.3486 41.1671 18.9726 41.5554 18.7 42.0512C18.4356 42.5469 18.3034 43.117 18.3034 43.7615C18.3034 44.4142 18.4397 44.9884 18.7124 45.4842C18.985 45.9799 19.3527 46.3682 19.8154 46.6491C20.2781 46.93 20.8068 47.0705 21.4017 47.0705C22.0049 47.0705 22.5254 46.9548 22.9633 46.7235C23.4095 46.4921 23.7523 46.1534 23.9919 45.7072C24.2315 45.2528 24.3514 44.6992 24.3514 44.0465L25.0578 44.5546H21.3398V43.4888H25.5535V43.6623C25.5535 44.6621 25.3759 45.5007 25.0206 46.1782C24.6736 46.8474 24.1861 47.3514 23.5582 47.6902C22.9385 48.0289 22.228 48.1983 21.4265 48.1983Z" fill="#8A8A8A"/>
<path d="M1.75588 23.6241C1.7558 23.5298 1.7558 23.4326 1.7558 23.3324V6.40372C1.7558 4.76907 1.7558 3.95114 2.10558 3.32679C2.41325 2.7776 2.90383 2.33141 3.50767 2.05158C4.19415 1.73346 5.09346 1.73346 6.89076 1.73346H25.5039C27.3011 1.73346 28.1993 1.73346 28.8858 2.05158C29.4896 2.33141 29.9811 2.7776 30.2887 3.32679C30.6382 3.95053 30.6382 4.76747 30.6382 6.39892V23.3366C30.6382 24.0444 30.6382 24.5987 30.6096 25.0503M1.75588 23.6241C1.75711 25.0664 1.77725 25.8215 2.10558 26.4075C2.41325 26.9567 2.90383 27.4044 3.50767 27.6842C4.19347 28.0021 5.0917 28.0021 6.88549 28.0021H25.5093C27.3031 28.0021 28.2 28.0021 28.8858 27.6842C29.4896 27.4044 29.9811 26.9567 30.2887 26.4075C30.4866 26.0544 30.5724 25.6397 30.6096 25.0503M1.75588 23.6241L9.40639 15.5062L9.40865 15.504C10.0872 14.784 10.427 14.4234 10.8301 14.2934C11.1842 14.1792 11.5708 14.1819 11.9231 14.3005C12.3246 14.4357 12.659 14.8004 13.3279 15.5305L17.614 20.2083C18.2331 20.8841 18.5445 21.2239 18.9226 21.3603C19.2561 21.4806 19.6238 21.4942 19.9679 21.4018C20.3596 21.2967 20.7044 20.9831 21.3938 20.3561L22.1914 19.6306C22.8934 18.9922 23.2444 18.6732 23.6417 18.5689C23.9906 18.4773 24.3637 18.497 24.6994 18.6231C25.0816 18.7666 25.3915 19.118 26.0117 19.823L30.6096 25.0503M30.6096 25.0503L30.6381 25.0827M21.0107 10.4897C20.1245 10.4897 19.4061 9.83628 19.4061 9.03029C19.4061 8.22431 20.1245 7.57092 21.0107 7.57092C21.8969 7.57092 22.6153 8.22431 22.6153 9.03029C22.6153 9.83628 21.8969 10.4897 21.0107 10.4897Z" stroke="#8A8A8A" stroke-width="2.02066" stroke-linecap="round" stroke-linejoin="round"/>
</svg>
